<svg width="14" height="14" viewBox="0 0 14 14" fill="none" xmlns="http://www.w3.org/2000/svg">
<path d="M6.39159 7.20651C6.36443 7.17942 6.34288 7.14723 6.32817 7.1118C6.31347 7.07636 6.3059 7.03838 6.3059 7.00001C6.3059 6.96165 6.31347 6.92366 6.32817 6.88823C6.34288 6.85279 6.36443 6.82061 6.39159 6.79351L9.06675 4.11893C9.2309 3.95486 9.32314 3.7323 9.3232 3.50022C9.32325 3.26814 9.23111 3.04553 9.06704 2.88139C8.90297 2.71724 8.68042 2.62499 8.44833 2.62494C8.21625 2.62488 7.99365 2.71703 7.8295 2.8811L5.15434 5.55626C4.77212 5.93953 4.55748 6.45873 4.55748 7.00001C4.55748 7.5413 4.77212 8.06049 5.15434 8.44376L7.8295 11.1189C7.99365 11.283 8.21625 11.3751 8.44833 11.3751C8.68042 11.375 8.90297 11.2828 9.06704 11.1186C9.23111 10.9545 9.32325 10.7319 9.3232 10.4998C9.32314 10.2677 9.2309 10.0452 9.06675 9.8811L6.39159 7.20651Z" fill="#333333"/>
</svg>
