<svg width="17" height="17" viewBox="0 0 17 17" fill="none" xmlns="http://www.w3.org/2000/svg">
<g clip-path="url(#clip0_9_166)">
<path d="M8.49989 10.6251C8.85707 10.6257 9.20947 10.543 9.5291 10.3836L10.7687 9.76381C11.1523 9.5738 11.475 9.27997 11.7 8.91572C11.925 8.55147 12.0434 8.13141 12.0416 7.70327V6.46369C12.0429 6.03556 11.9241 5.61565 11.6988 5.25165C11.4734 4.88765 11.1504 4.59418 10.7666 4.40456L9.52697 3.78477C9.20718 3.62579 8.8549 3.54305 8.49777 3.54305C8.14063 3.54305 7.78835 3.62579 7.46856 3.78477L6.23322 4.40456C5.84938 4.59418 5.52641 4.88765 5.30103 5.25165C5.07564 5.61565 4.95688 6.03556 4.95822 6.46369V7.70327C4.95688 8.13139 5.07564 8.55131 5.30103 8.91531C5.52641 9.2793 5.84938 9.57278 6.23322 9.7624L7.47281 10.3822C7.79168 10.5418 8.14332 10.6249 8.49989 10.6251ZM7.08322 7.70469V6.50052L8.02318 6.97015C8.17112 7.04441 8.33436 7.08309 8.49989 7.08309C8.66542 7.08309 8.82866 7.04441 8.9766 6.97015L9.91656 6.50123V7.7054C9.91672 7.73843 9.90757 7.77083 9.89016 7.7989C9.87274 7.82696 9.84777 7.84955 9.8181 7.86406L8.57852 8.48386C8.55411 8.49607 8.52719 8.50243 8.49989 8.50243C8.4726 8.50243 8.44567 8.49607 8.42127 8.48386L7.18168 7.86406C7.15169 7.84939 7.12649 7.82647 7.10905 7.798C7.09162 7.76952 7.08266 7.73666 7.08322 7.70327V7.70469ZM13.1041 14.8751H10.4549C10.6849 14.7356 10.8987 14.571 11.0924 14.3843L13.5092 12.1396C14.8358 10.8019 15.5801 8.9943 15.5801 7.1104C15.5801 5.22649 14.8358 3.41889 13.5092 2.08123C12.8527 1.42057 12.072 0.896266 11.212 0.538488C10.3521 0.18071 9.42988 -0.003479 8.49847 -0.003479C7.56707 -0.003479 6.64486 0.18071 5.78491 0.538488C4.92497 0.896266 4.14426 1.42057 3.48772 2.08123C2.15823 3.42534 1.4152 5.24131 1.42117 7.13185C1.42714 9.0224 2.18164 10.8336 3.5196 12.1693L5.88402 14.3651C6.08646 14.5601 6.31057 14.7312 6.55197 14.8751H3.89572C3.61393 14.8751 3.34368 14.9871 3.14442 15.1863C2.94517 15.3856 2.83322 15.6559 2.83322 15.9376C2.83322 16.2194 2.94517 16.4897 3.14442 16.6889C3.34368 16.8882 3.61393 17.0001 3.89572 17.0001H13.1041C13.3858 17.0001 13.6561 16.8882 13.8554 16.6889C14.0546 16.4897 14.1666 16.2194 14.1666 15.9376C14.1666 15.6559 14.0546 15.3856 13.8554 15.1863C13.6561 14.9871 13.3858 14.8751 13.1041 14.8751ZM4.99577 10.6407C4.06538 9.7023 3.54337 8.43434 3.54337 7.11288C3.54337 5.79141 4.06538 4.52345 4.99577 3.58502C5.45459 3.12247 6.00046 2.75533 6.60188 2.50479C7.2033 2.25425 7.84837 2.12526 8.49989 2.12526C9.15141 2.12526 9.79648 2.25425 10.3979 2.50479C10.9993 2.75533 11.5452 3.12247 12.004 3.58502C12.9313 4.51717 13.4544 5.77692 13.4601 7.09175C13.4658 8.40659 12.9537 9.67082 12.0345 10.611L9.62614 12.8472C9.31913 13.141 8.90949 13.3032 8.48459 13.2992C8.05969 13.2952 7.65315 13.1254 7.35168 12.8259L4.99577 10.6407Z" fill="#333333"/>
</g>
<defs>
<clipPath id="clip0_9_166">
<rect width="17" height="17" fill="white"/>
</clipPath>
</defs>
</svg>
