<svg width="12" height="12" viewBox="0 0 12 12" fill="none" xmlns="http://www.w3.org/2000/svg">
<g clip-path="url(#clip0_23_65)">
<path d="M6 0C4.60814 0.00172006 3.27378 0.555396 2.28959 1.53959C1.3054 2.52378 0.75172 3.85814 0.75 5.25C0.75 6.663 1.85 8.633 4.0205 11.1045C4.26802 11.3858 4.57263 11.6111 4.91404 11.7654C5.25545 11.9198 5.62583 11.9996 6.0005 11.9996C6.37517 11.9996 6.74555 11.9198 7.08696 11.7654C7.42837 11.6111 7.73298 11.3858 7.9805 11.1045C10.15 8.6335 11.25 6.6635 11.25 5.25C11.2483 3.85814 10.6946 2.52378 9.71041 1.53959C8.72622 0.555396 7.39186 0.00172006 6 0V0ZM6.853 10.1155C6.74397 10.2327 6.61196 10.3262 6.4652 10.3901C6.31844 10.454 6.16008 10.487 6 10.487C5.83992 10.487 5.68156 10.454 5.5348 10.3901C5.38804 10.3262 5.25603 10.2327 5.147 10.1155C3.3055 8.018 2.247 6.2445 2.247 5.2505C2.247 4.25594 2.64209 3.30211 3.34535 2.59885C4.04861 1.89559 5.00244 1.5005 5.997 1.5005C6.99156 1.5005 7.94539 1.89559 8.64865 2.59885C9.35191 3.30211 9.747 4.25594 9.747 5.2505C9.75 6.2445 8.6945 8.018 6.853 10.1155Z" fill="white"/>
<path d="M6.00001 3.02771C5.56855 3.02771 5.14678 3.15565 4.78804 3.39536C4.42929 3.63507 4.14968 3.97577 3.98457 4.37439C3.81946 4.773 3.77626 5.21163 3.86043 5.6348C3.9446 6.05797 4.15237 6.44668 4.45746 6.75176C4.76255 7.05685 5.15125 7.26462 5.57442 7.34879C5.99759 7.43297 6.43622 7.38977 6.83484 7.22465C7.23345 7.05954 7.57416 6.77993 7.81386 6.42119C8.05357 6.06244 8.18151 5.64067 8.18151 5.20921C8.18085 4.63084 7.9508 4.07635 7.54183 3.66739C7.13287 3.25842 6.57838 3.02837 6.00001 3.02771V3.02771ZM6.00001 5.89071C5.86522 5.89071 5.73346 5.85074 5.62139 5.77586C5.50932 5.70097 5.42197 5.59454 5.37039 5.47001C5.31881 5.34548 5.30531 5.20845 5.33161 5.07626C5.3579 4.94406 5.42281 4.82263 5.51812 4.72732C5.61343 4.63201 5.73486 4.5671 5.86706 4.54081C5.99926 4.51451 6.13628 4.52801 6.26081 4.57959C6.38534 4.63117 6.49177 4.71852 6.56666 4.83059C6.64154 4.94266 6.68151 5.07442 6.68151 5.20921C6.68138 5.38991 6.60954 5.56318 6.48176 5.69096C6.35398 5.81873 6.18072 5.89058 6.00001 5.89071V5.89071Z" fill="white"/>
</g>
<defs>
<clipPath id="clip0_23_65">
<rect width="12" height="12" fill="white"/>
</clipPath>
</defs>
</svg>
