<svg width="78" height="38" viewBox="0 0 78 38" fill="none" xmlns="http://www.w3.org/2000/svg">
<path d="M16.3011 7.39911L10.8142 12.8157V24.8132L16.3011 19.3949V7.39911Z" fill="#1C1C1E"/>
<path d="M16.301 7.3949H5.40706L0 12.8115H10.8853" fill="#1C1C1E"/>
<path d="M62.342 22.5919L69.5402 29.7895L77.2506 29.839L70.0516 22.6405" fill="#1C1C1E"/>
<path d="M62.342 22.5918L70.0516 22.6405L77.2639 15.3685L69.5526 15.3207L62.342 22.5918Z" fill="#1C1C1E"/>
<path d="M0 23.7626L5.21086e-05 37.7072L5.38427 32.3001L5.31312 18.4979L0 23.7626Z" fill="#1C1C1E"/>
<path d="M36.7818 14.656H33.5091L28.4358 19.8496H31.6593" fill="#1C1C1E"/>
<path d="M36.9241 22.1974H40.1257L45.199 17.0038H42.0466" fill="#1C1C1E"/>
<path d="M36.7826 14.6915V7.82599L31.6677 12.9485V13.2726V19.8394L36.7826 14.6915Z" fill="#1C1C1E"/>
<path d="M36.9243 22.1618V29.3831L42.0467 24.2606V23.5808V17.014L36.9243 22.1618Z" fill="#1C1C1E"/>
<path d="M23.9754 24.5452L18.7818 29.8266H29.1691L34.4631 24.4958" fill="#1C1C1E"/>
<path d="M18.3928 12.7425L18.4261 29.5254L23.7416 24.1894L23.7478 13.2176L23.7487 7.42676L18.3928 12.7425Z" fill="#1C1C1E"/>
<path d="M36.4264 7.42676L23.7606 7.43383L18.3852 12.7425H31.1216" fill="#1C1C1E"/>
<path d="M62.3681 29.8346V0L57.0741 5.27414V29.8346" fill="#1C1C1E"/>
<path d="M49.2326 12.7299L54.4973 7.39915H44.2523L38.9584 12.7299" fill="#1C1C1E"/>
<path d="M54.8864 24.4833L54.853 7.75493L49.5375 13.0908L49.5313 24.0082L49.5305 29.799L54.8864 24.4833Z" fill="#1C1C1E"/>
<path d="M37.1373 29.792H49.5186L54.8939 24.4833H42.402" fill="#1C1C1E"/>
</svg>
