<svg width="78" height="38" viewBox="0 0 78 38" fill="none" xmlns="http://www.w3.org/2000/svg">
<path d="M16.3011 7.39893L10.8142 12.8155V24.8131L16.3011 19.3947V7.39893Z" fill="white"/>
<path d="M16.301 7.39502H5.40706L0 12.8116H10.8853" fill="white"/>
<path d="M62.342 22.5918L69.5402 29.7894L77.2506 29.839L70.0516 22.6405" fill="white"/>
<path d="M62.342 22.5919L70.0516 22.6405L77.2639 15.3686L69.5525 15.3208L62.342 22.5919Z" fill="white"/>
<path d="M0 23.7628L5.21086e-05 37.7074L5.38427 32.3003L5.31312 18.498L0 23.7628Z" fill="white"/>
<path d="M36.7818 14.6562H33.5091L28.4358 19.8499H31.6593" fill="white"/>
<path d="M36.9241 22.1973H40.1257L45.199 17.0036H42.0466" fill="white"/>
<path d="M36.7825 14.6917V7.82617L31.6677 12.9487V13.2728V19.8396L36.7825 14.6917Z" fill="white"/>
<path d="M36.9242 22.162V29.3833L42.0467 24.2608V23.5809V17.0141L36.9242 22.162Z" fill="white"/>
<path d="M23.9754 24.545L18.7818 29.8264H29.1691L34.463 24.4956" fill="white"/>
<path d="M18.3928 12.7425L18.4261 29.5254L23.7416 24.1894L23.7478 13.2176L23.7487 7.42676L18.3928 12.7425Z" fill="white"/>
<path d="M36.4264 7.42676L23.7606 7.43383L18.3852 12.7425H31.1216" fill="white"/>
<path d="M62.368 29.8346V0L57.0741 5.27414V29.8346" fill="white"/>
<path d="M49.2326 12.73L54.4973 7.39922H44.2524L38.9584 12.73" fill="white"/>
<path d="M54.8864 24.4831L54.853 7.75475L49.5375 13.0907L49.5313 24.008L49.5305 29.7988L54.8864 24.4831Z" fill="white"/>
<path d="M37.1373 29.792H49.5186L54.8939 24.4833H42.4021" fill="white"/>
</svg>
