<svg width="18" height="18" viewBox="0 0 18 18" fill="none" xmlns="http://www.w3.org/2000/svg">
<circle cx="9" cy="9" r="9" fill="#333333"/>
<g clip-path="url(#clip0_8_39)">
<path d="M10.0417 4H7.95836C7.35078 4.00066 6.76827 4.24232 6.33864 4.67194C5.90901 5.10157 5.66736 5.68408 5.6667 6.29167V11.7083C5.66736 12.3159 5.90901 12.8984 6.33864 13.3281C6.76827 13.7577 7.35078 13.9993 7.95836 14H10.0417C10.6493 13.9993 11.2318 13.7577 11.6614 13.3281C12.091 12.8984 12.3327 12.3159 12.3334 11.7083V6.29167C12.3327 5.68408 12.091 5.10157 11.6614 4.67194C11.2318 4.24232 10.6493 4.00066 10.0417 4V4ZM7.95836 5.25H10.0417C10.318 5.25 10.5829 5.35975 10.7783 5.5551C10.9736 5.75045 11.0834 6.0154 11.0834 6.29167V11.5H6.9167V6.29167C6.9167 6.0154 7.02644 5.75045 7.22179 5.5551C7.41714 5.35975 7.6821 5.25 7.95836 5.25ZM9.00003 13.1667C8.88952 13.1667 8.78354 13.1228 8.7054 13.0446C8.62726 12.9665 8.58336 12.8605 8.58336 12.75C8.58336 12.6395 8.62726 12.5335 8.7054 12.4554C8.78354 12.3772 8.88952 12.3333 9.00003 12.3333C9.11054 12.3333 9.21652 12.3772 9.29466 12.4554C9.3728 12.5335 9.4167 12.6395 9.4167 12.75C9.4167 12.8605 9.3728 12.9665 9.29466 13.0446C9.21652 13.1228 9.11054 13.1667 9.00003 13.1667Z" fill="white"/>
</g>
<defs>
<clipPath id="clip0_8_39">
<rect width="10" height="10" fill="white" transform="translate(4 4)"/>
</clipPath>
</defs>
</svg>
