<svg width="20" height="20" viewBox="0 0 20 20" fill="none" xmlns="http://www.w3.org/2000/svg">
<g clip-path="url(#clip0_17_55)">
<path d="M18.75 8.75H16.1242C15.9626 7.9667 15.6514 7.22196 15.2075 6.55667L17.0675 4.69667C17.2952 4.46091 17.4212 4.14516 17.4183 3.81742C17.4155 3.48967 17.284 3.17615 17.0523 2.94439C16.8205 2.71263 16.507 2.58117 16.1793 2.57832C15.8515 2.57548 15.5358 2.70147 15.3 2.92917L13.4433 4.78917C12.778 4.34528 12.0333 4.03402 11.25 3.8725V1.25C11.25 0.918479 11.1183 0.600537 10.8839 0.366116C10.6495 0.131696 10.3315 0 10 0C9.66848 0 9.35054 0.131696 9.11612 0.366116C8.8817 0.600537 8.75 0.918479 8.75 1.25V3.87583C7.9667 4.03736 7.22196 4.34861 6.55667 4.7925L4.69667 2.92917C4.46091 2.70147 4.14516 2.57548 3.81742 2.57832C3.48967 2.58117 3.17615 2.71263 2.94439 2.94439C2.71263 3.17615 2.58117 3.48967 2.57832 3.81742C2.57548 4.14516 2.70147 4.46091 2.92917 4.69667L4.78917 6.55667C4.34528 7.22196 4.03402 7.9667 3.8725 8.75H1.25C0.918479 8.75 0.600537 8.8817 0.366116 9.11612C0.131696 9.35054 0 9.66848 0 10C0 10.3315 0.131696 10.6495 0.366116 10.8839C0.600537 11.1183 0.918479 11.25 1.25 11.25H3.87583C4.03736 12.0333 4.34861 12.778 4.7925 13.4433L2.92917 15.3033C2.70147 15.5391 2.57548 15.8548 2.57832 16.1826C2.58117 16.5103 2.71263 16.8238 2.94439 17.0556C3.17615 17.2874 3.48967 17.4188 3.81742 17.4217C4.14516 17.4245 4.46091 17.2985 4.69667 17.0708L6.55667 15.2108C7.22196 15.6547 7.9667 15.966 8.75 16.1275V18.75C8.75 19.0815 8.8817 19.3995 9.11612 19.6339C9.35054 19.8683 9.66848 20 10 20C10.3315 20 10.6495 19.8683 10.8839 19.6339C11.1183 19.3995 11.25 19.0815 11.25 18.75V16.1242C12.0333 15.9626 12.778 15.6514 13.4433 15.2075L15.3033 17.0675C15.5391 17.2952 15.8548 17.4212 16.1826 17.4183C16.5103 17.4155 16.8238 17.284 17.0556 17.0523C17.2874 16.8205 17.4188 16.507 17.4217 16.1793C17.4245 15.8515 17.2985 15.5358 17.0708 15.3L15.2108 13.44C15.6547 12.7747 15.966 12.03 16.1275 11.2467H18.75C19.0699 11.2301 19.3713 11.0914 19.5919 10.8591C19.8125 10.6268 19.9355 10.3187 19.9355 9.99833C19.9355 9.67798 19.8125 9.36986 19.5919 9.13757C19.3713 8.90527 19.0699 8.76654 18.75 8.75ZM10 13.75C9.00544 13.75 8.05161 13.3549 7.34835 12.6516C6.64509 11.9484 6.25 10.9946 6.25 10C6.25 9.00544 6.64509 8.05161 7.34835 7.34835C8.05161 6.64509 9.00544 6.25 10 6.25C10.9946 6.25 11.9484 6.64509 12.6516 7.34835C13.3549 8.05161 13.75 9.00544 13.75 10C13.75 10.9946 13.3549 11.9484 12.6516 12.6516C11.9484 13.3549 10.9946 13.75 10 13.75Z" fill="white"/>
</g>
<defs>
<clipPath id="clip0_17_55">
<rect width="20" height="20" fill="white"/>
</clipPath>
</defs>
</svg>
