<svg width="18" height="18" viewBox="0 0 18 18" fill="none" xmlns="http://www.w3.org/2000/svg">
<circle cx="9" cy="9" r="9" fill="#333333"/>
<g clip-path="url(#clip0_8_40)">
<path d="M6.08333 8.79163C6.08333 8.62587 6.14918 8.46689 6.26639 8.34968C6.3836 8.23247 6.54257 8.16663 6.70833 8.16663H11.2917C11.4574 8.16663 11.6164 8.23247 11.7336 8.34968C11.8508 8.46689 11.9167 8.62587 11.9167 8.79163C11.9167 8.95739 11.8508 9.11636 11.7336 9.23357C11.6164 9.35078 11.4574 9.41663 11.2917 9.41663H6.70833C6.54257 9.41663 6.3836 9.35078 6.26639 9.23357C6.14918 9.11636 6.08333 8.95739 6.08333 8.79163ZM6.70833 11.5H9.625C9.79076 11.5 9.94973 11.4341 10.0669 11.3169C10.1841 11.1997 10.25 11.0407 10.25 10.875C10.25 10.7092 10.1841 10.5502 10.0669 10.433C9.94973 10.3158 9.79076 10.25 9.625 10.25H6.70833C6.54257 10.25 6.3836 10.3158 6.26639 10.433C6.14918 10.5502 6.08333 10.7092 6.08333 10.875C6.08333 11.0407 6.14918 11.1997 6.26639 11.3169C6.3836 11.4341 6.54257 11.5 6.70833 11.5ZM14 6.70829V11.2916C13.9993 11.8992 13.7577 12.4817 13.3281 12.9113C12.8984 13.341 12.3159 13.5826 11.7083 13.5833H6.29166C5.68408 13.5826 5.10157 13.341 4.67194 12.9113C4.24231 12.4817 4.00066 11.8992 4 11.2916V6.70829C4.00066 6.10071 4.24231 5.5182 4.67194 5.08857C5.10157 4.65894 5.68408 4.41729 6.29166 4.41663H11.7083C12.3159 4.41729 12.8984 4.65894 13.3281 5.08857C13.7577 5.5182 13.9993 6.10071 14 6.70829ZM7.33333 5.87496C7.33333 5.99857 7.36998 6.11941 7.43866 6.22219C7.50734 6.32497 7.60495 6.40508 7.71915 6.45238C7.83336 6.49969 7.95902 6.51207 8.08026 6.48795C8.2015 6.46383 8.31286 6.40431 8.40027 6.3169C8.48768 6.22949 8.5472 6.11813 8.57132 5.99689C8.59544 5.87565 8.58306 5.74999 8.53575 5.63578C8.48845 5.52158 8.40834 5.42397 8.30556 5.35529C8.20278 5.28661 8.08194 5.24996 7.95833 5.24996C7.79257 5.24996 7.6336 5.31581 7.51639 5.43302C7.39918 5.55023 7.33333 5.7092 7.33333 5.87496ZM5.25 5.87496C5.25 5.99857 5.28665 6.11941 5.35533 6.22219C5.424 6.32497 5.52162 6.40508 5.63582 6.45238C5.75002 6.49969 5.87569 6.51207 5.99693 6.48795C6.11817 6.46383 6.22953 6.40431 6.31694 6.3169C6.40435 6.22949 6.46387 6.11813 6.48799 5.99689C6.5121 5.87565 6.49973 5.74999 6.45242 5.63578C6.40512 5.52158 6.32501 5.42397 6.22223 5.35529C6.11945 5.28661 5.99861 5.24996 5.875 5.24996C5.70924 5.24996 5.55026 5.31581 5.43305 5.43302C5.31584 5.55023 5.25 5.7092 5.25 5.87496ZM12.75 7.33329H5.25V11.2916C5.25 11.5679 5.35974 11.8328 5.55509 12.0282C5.75044 12.2235 6.0154 12.3333 6.29166 12.3333H11.7083C11.9846 12.3333 12.2495 12.2235 12.4449 12.0282C12.6402 11.8328 12.75 11.5679 12.75 11.2916V7.33329Z" fill="white"/>
</g>
<defs>
<clipPath id="clip0_8_40">
<rect width="10" height="10" fill="white" transform="translate(4 4)"/>
</clipPath>
</defs>
</svg>
