<svg width="14" height="14" viewBox="0 0 14 14" fill="none" xmlns="http://www.w3.org/2000/svg">
<path d="M9.18752 5.55626L6.51236 2.8811C6.34821 2.71703 6.12561 2.62488 5.89353 2.62494C5.66144 2.62499 5.43889 2.71724 5.27482 2.88139C5.11075 3.04553 5.01861 3.26814 5.01866 3.50022C5.01872 3.7323 5.11096 3.95486 5.27511 4.11893L7.95027 6.79351C7.97743 6.82061 7.99898 6.85279 8.01369 6.88823C8.02839 6.92366 8.03596 6.96165 8.03596 7.00001C8.03596 7.03838 8.02839 7.07636 8.01369 7.1118C7.99898 7.14723 7.97743 7.17942 7.95027 7.20651L5.27511 9.8811C5.11096 10.0452 5.01872 10.2677 5.01866 10.4998C5.01861 10.7319 5.11075 10.9545 5.27482 11.1186C5.43889 11.2828 5.66144 11.375 5.89353 11.3751C6.12561 11.3751 6.34821 11.283 6.51236 11.1189L9.18752 8.44376C9.56974 8.06049 9.78438 7.5413 9.78438 7.00001C9.78438 6.45873 9.56974 5.93953 9.18752 5.55626Z" fill="#333333"/>
</svg>
